<?xml version="1.0" encoding="utf-8"?>
<svg version="1.1" xmlns="http://www.w3.org/2000/svg" width="128" height="108">
  <path d="M0 0 C13.2 0 26.4 0 40 0 C40 7.26 40 14.52 40 22 C38.02 22 36.04 22 34 22 C34 26.62 34 31.24 34 36 C40.93 36 47.86 36 55 36 C55 31.38 55 26.76 55 22 C53.02 22 51.04 22 49 22 C49 14.74 49 7.48 49 0 C62.53 0 76.06 0 90 0 C90 7.26 90 14.52 90 22 C87.69 22 85.38 22 83 22 C83 26.62 83 31.24 83 36 C93.23 36 103.46 36 114 36 C114 43.26 114 50.52 114 58 C112.02 58 110.04 58 108 58 C108 67.24 108 76.48 108 86 C109.98 86 111.96 86 114 86 C114 93.26 114 100.52 114 108 C100.47 108 86.94 108 73 108 C72.979375 104.555625 72.95875 101.11125 72.9375 97.5625 C72.928396 96.47525635 72.91929199 95.3880127 72.90991211 94.26782227 C72.90741455 93.41760498 72.90491699 92.5673877 72.90234375 91.69140625 C72.89710693 90.81685791 72.89187012 89.94230957 72.88647461 89.04125977 C73 87 73 87 74 86 C75.66617115 85.95936168 77.33388095 85.957279 79 86 C79 85.01 79 84.02 79 83 C72.4 83 65.8 83 59 83 C59 83.99 59 84.98 59 86 C60.98 86 62.96 86 65 86 C65 93.26 65 100.52 65 108 C51.47 108 37.94 108 24 108 C24 100.74 24 93.48 24 86 C26.31 86 28.62 86 31 86 C31 80.72 31 75.44 31 70 C27.8753125 70.309375 27.8753125 70.309375 24.6875 70.625 C18.84830398 71.20313822 15.7992461 69.68054935 11.0625 66.1875 C6.76831973 62.02015205 5.35779028 59.16138301 4.96247864 53.20736694 C4.89939961 48.91626205 5.08112359 44.65883698 5.3125 40.375 C5.36776481 38.58999533 5.41793953 36.80482542 5.46289062 35.01953125 C5.58325186 30.67555914 5.77248628 26.33962537 6 22 C4.02 22 2.04 22 0 22 C0 14.74 0 7.48 0 0 Z " fill="#FCE8EB" transform="translate(0,0)"/>
  <path d="M0 0 C9.57 0 19.14 0 29 0 C29 3.3 29 6.6 29 10 C27.02 10 25.04 10 23 10 C23 14.95 23 19.9 23 25 C33.89 25 44.78 25 56 25 C56 20.05 56 15.1 56 10 C54.02 10 52.04 10 50 10 C50 7.03 50 4.06 50 1 C58.91 1 67.82 1 77 1 C77 3.64 77 6.28 77 9 C75.02 9 73.04 9 71 9 C71 22.86 71 36.72 71 51 C72.98 51 74.96 51 77 51 C77 53.97 77 56.94 77 60 C68.09 60 59.18 60 50 60 C50 57.03 50 54.06 50 51 C51.98 51 53.96 51 56 51 C56 45.72 56 40.44 56 35 C45.11 35 34.22 35 23 35 C23 40.28 23 45.56 23 51 C24.65 51 26.3 51 28 51 C28 53.97 28 56.94 28 60 C19.09 60 10.18 60 1 60 C1 57.03 1 54.06 1 51 C2.98 51 4.96 51 7 51 C7 37.47 7 23.94 7 10 C4.69 10 2.38 10 0 10 C0 6.7 0 3.4 0 0 Z " fill="#E6203D" transform="translate(30,42)"/>
  <path d="M0 0 C13.2 0 26.4 0 40 0 C40 7.26 40 14.52 40 22 C38.02 22 36.04 22 34 22 C34 26.62 34 31.24 34 36 C40.93 36 47.86 36 55 36 C55 31.38 55 26.76 55 22 C53.02 22 51.04 22 49 22 C49 14.74 49 7.48 49 0 C62.53 0 76.06 0 90 0 C90 7.26 90 14.52 90 22 C87.69 22 85.38 22 83 22 C83 26.62 83 31.24 83 36 C93.23 36 103.46 36 114 36 C114 43.26 114 50.52 114 58 C112.02 58 110.04 58 108 58 C108 67.24 108 76.48 108 86 C109.98 86 111.96 86 114 86 C114 93.26 114 100.52 114 108 C100.47 108 86.94 108 73 108 C72.979375 104.555625 72.95875 101.11125 72.9375 97.5625 C72.928396 96.47525635 72.91929199 95.3880127 72.90991211 94.26782227 C72.90741455 93.41760498 72.90491699 92.5673877 72.90234375 91.69140625 C72.89710693 90.81685791 72.89187012 89.94230957 72.88647461 89.04125977 C73 87 73 87 74 86 C75.66617115 85.95936168 77.33388095 85.957279 79 86 C79 85.01 79 84.02 79 83 C72.4 83 65.8 83 59 83 C59 83.99 59 84.98 59 86 C60.98 86 62.96 86 65 86 C65 93.26 65 100.52 65 108 C51.47 108 37.94 108 24 108 C24 100.74 24 93.48 24 86 C26.31 86 28.62 86 31 86 C31 80.72 31 75.44 31 70 C27.8753125 70.309375 27.8753125 70.309375 24.6875 70.625 C18.84830398 71.20313822 15.7992461 69.68054935 11.0625 66.1875 C6.76831973 62.02015205 5.35779028 59.16138301 4.96247864 53.20736694 C4.89939961 48.91626205 5.08112359 44.65883698 5.3125 40.375 C5.36776481 38.58999533 5.41793953 36.80482542 5.46289062 35.01953125 C5.58325186 30.67555914 5.77248628 26.33962537 6 22 C4.02 22 2.04 22 0 22 C0 14.74 0 7.48 0 0 Z M3 3 C3 7.95 3 12.9 3 18 C4.98 18 6.96 18 9 18 C8.94763184 19.1645874 8.89526367 20.3291748 8.84130859 21.52905273 C8.6591902 25.88372793 8.54512194 30.23807374 8.45068359 34.59545898 C8.40064159 36.47461687 8.33257915 38.35339018 8.24560547 40.23120117 C7.50446337 51.18947332 7.50446337 51.18947332 10.98486328 61.27368164 C14.61395321 64.80291071 18.13769055 67.33239023 23.2578125 67.87890625 C25.17207031 67.72228516 25.17207031 67.72228516 27.125 67.5625 C29.39375 67.376875 31.6625 67.19125 34 67 C34 74.59 34 82.18 34 90 C32.02 90 30.04 90 28 90 C28 94.95 28 99.9 28 105 C38.89 105 49.78 105 61 105 C61 100.05 61 95.1 61 90 C59.02 90 57.04 90 55 90 C55 86.7 55 83.4 55 80 C64.24 80 73.48 80 83 80 C83 83.3 83 86.6 83 90 C81.02 90 79.04 90 77 90 C77 94.95 77 99.9 77 105 C87.89 105 98.78 105 110 105 C110 100.05 110 95.1 110 90 C108.02 90 106.04 90 104 90 C104 78.12 104 66.24 104 54 C105.98 54 107.96 54 110 54 C110 49.38 110 44.76 110 40 C100.1 40 90.2 40 80 40 C80 32.74 80 25.48 80 18 C81.98 18 83.96 18 86 18 C86 13.05 86 8.1 86 3 C75.11 3 64.22 3 53 3 C53 7.95 53 12.9 53 18 C54.65 18 56.3 18 58 18 C58 24.93 58 31.86 58 39 C49.09 39 40.18 39 31 39 C31 32.07 31 25.14 31 18 C32.98 18 34.96 18 37 18 C37 13.05 37 8.1 37 3 C25.78 3 14.56 3 3 3 Z " fill="#E62441" transform="translate(0,0)"/>
  <path d="M0 0 C9.24 0 18.48 0 28 0 C28 2.97 28 5.94 28 9 C26.02 9 24.04 9 22 9 C22 22.2 22 35.4 22 49 C23.98 49 25.96 49 28 49 C28 51.97 28 54.94 28 58 C25.83688233 58.19139946 23.66869819 58.32587583 21.5 58.4375 C20.2934375 58.51871094 19.086875 58.59992188 17.84375 58.68359375 C12.48695003 57.73091083 9.36418006 55.24682717 6 51 C4.96451067 47.66695665 5.05666756 44.59337897 5.21875 41.12890625 C5.23006958 40.206577 5.24138916 39.28424774 5.25305176 38.33396912 C5.29759209 35.40797022 5.39790138 32.48699925 5.5 29.5625 C5.54015639 27.57103468 5.57665338 25.57949198 5.609375 23.58789062 C5.69725316 18.72334361 5.8351365 13.86252199 6 9 C4.02 9 2.04 9 0 9 C0 6.03 0 3.06 0 0 Z " fill="#E6213E" transform="translate(6,6)"/>
  <path d="M0 0 C8.91 0 17.82 0 27 0 C27 2.97 27 5.94 27 9 C25.02 9 23.04 9 21 9 C21.04189453 10.23564697 21.08378906 11.47129395 21.12695312 12.74438477 C21.2722578 17.34905246 21.36377261 21.9535198 21.43945312 26.55981445 C21.479572 28.5494194 21.53408374 30.53879012 21.60351562 32.52758789 C21.7010904 35.39528197 21.74603859 38.25984956 21.78125 41.12890625 C21.82254028 42.01147598 21.86383057 42.89404572 21.90637207 43.80335999 C21.9091513 47.66850479 21.74908488 50.05438057 19.30090332 53.1448822 C15.86738862 56.28515933 13.81559536 57.85495001 9.15625 58.68359375 C7.9496875 58.60238281 6.743125 58.52117187 5.5 58.4375 C4.2728125 58.37433594 3.045625 58.31117187 1.78125 58.24609375 C0.8634375 58.16488281 -0.054375 58.08367187 -1 58 C-1 54.7 -1 51.4 -1 48 C0.98 48 2.96 48 5 48 C5 35.13 5 22.26 5 9 C3.35 9 1.7 9 0 9 C0 6.03 0 3.06 0 0 Z " fill="#E6203D" transform="translate(56,6)"/>
  <path d="M0 0 C0 2.64 0 5.28 0 8 C-2.97 8 -5.94 8 -9 8 C-7.33333333 6.33333333 -5.66666667 4.66666667 -4 3 C-3.4225 2.401875 -2.845 1.80375 -2.25 1.1875 C-1 0 -1 0 0 0 Z " fill="#E93852" transform="translate(83,56)"/>
</svg>